<svg style="position: absolute; width: 0; height: 0;" width="0" height="0" version="1.1" xmlns="http://www.w3.org/2000/svg" xmlns:xlink="http://www.w3.org/1999/xlink">
    <defs>


        <symbol id="icon-test" viewBox="0 0 32 32">
            <title>mobile</title>
            <path class="path1" d="M23 0h-14c-1.65 0-3 1.35-3 3v26c0 1.65 1.35 3 3 3h14c1.65 0 3-1.35 3-3v-26c0-1.65-1.35-3-3-3zM12 1.5h8v1h-8v-1zM16 30c-1.105 0-2-0.895-2-2s0.895-2 2-2 2 0.895 2 2-0.895 2-2 2zM24 24h-16v-20h16v20z"></path>
        </symbol>

        <symbol id="icon-heart-solid" viewBox="0 0 31 28">
            <title>heart solid</title>
            <path d="M15.5001 27.1354L13.3855 25.2104C5.87508 18.4 0.916748 13.9083 0.916748 8.39583C0.916748 3.90417 4.44592 0.375 8.93758 0.375C11.4751 0.375 13.9105 1.55625 15.5001 3.42292C17.0897 1.55625 19.5251 0.375 22.0626 0.375C26.5543 0.375 30.0834 3.90417 30.0834 8.39583C30.0834 13.9083 25.1251 18.4 17.6147 25.225L15.5001 27.1354Z"/>
        </symbol>

        <symbol id="icon-user" viewBox="0 0 31 31">
            <title>user</title>
            <path d="M15.5 0.916672C7.44996 0.916672 0.916626 7.45001 0.916626 15.5C0.916626 23.55 7.44996 30.0833 15.5 30.0833C23.55 30.0833 30.0833 23.55 30.0833 15.5C30.0833 7.45001 23.55 0.916672 15.5 0.916672ZM15.5 5.29167C17.9208 5.29167 19.875 7.24584 19.875 9.66667C19.875 12.0875 17.9208 14.0417 15.5 14.0417C13.0791 14.0417 11.125 12.0875 11.125 9.66667C11.125 7.24584 13.0791 5.29167 15.5 5.29167ZM15.5 26C11.8541 26 8.63121 24.1333 6.74996 21.3042C6.79371 18.4021 12.5833 16.8125 15.5 16.8125C18.402 16.8125 24.2062 18.4021 24.25 21.3042C22.3687 24.1333 19.1458 26 15.5 26Z"/>
        </symbol>

        <symbol id="icon-exit" viewBox="0 0 15 12">
            <title>exit</title>
            <path d="M10.8333 2.66667L9.89325 3.60667L11.6133 5.33333H4.83325V6.66667H11.6133L9.89325 8.38667L10.8333 9.33333L14.1666 6L10.8333 2.66667ZM2.16659 1.33333H7.49992V0H2.16659C1.43325 0 0.833252 0.6 0.833252 1.33333V10.6667C0.833252 11.4 1.43325 12 2.16659 12H7.49992V10.6667H2.16659V1.33333Z"/>
        </symbol>

        <symbol id="icon-menu" viewBox="0 0 18 11">
            <title>Menu</title>
            <path d="M2 6.5H16V4.5H2V6.5ZM0 10.5H14V8.5H0V10.5ZM4 0.5V2.5H18V0.5H4Z"/>
        </symbol>

    </defs>
</svg>
