<svg style="position: absolute; width: 0; height: 0;" width="0" height="0" version="1.1" xmlns="http://www.w3.org/2000/svg" xmlns:xlink="http://www.w3.org/1999/xlink">
    <defs>


        <symbol id="icon-heart" viewBox="0 0 22 20">
            <title>heart</title>
            <path d="M10.0748 17.8188L10.0733 17.8175C7.22058 15.2543 4.93437 13.1977 3.34931 11.2776C1.77544 9.37099 1 7.72299 1 5.99455C1 3.19855 3.20558 1 6.05 1C7.66464 1 9.22737 1.74961 10.2416 2.92972L11 3.81215L11.7584 2.92972C12.7726 1.74961 14.3354 1 15.95 1C18.7944 1 21 3.19855 21 5.99455C21 7.72301 20.2246 9.37105 18.6505 11.2792C17.0654 13.2006 14.7796 15.2596 11.9272 17.8279C11.9268 17.8283 11.9263 17.8287 11.9259 17.8291L11.0025 18.6556L10.0748 17.8188Z"/>
        </symbol>

        <symbol id="icon-heart-solid" viewBox="0 0 31 28">
            <title>heart solid</title>
            <path d="M15.5001 27.1354L13.3855 25.2104C5.87508 18.4 0.916748 13.9083 0.916748 8.39583C0.916748 3.90417 4.44592 0.375 8.93758 0.375C11.4751 0.375 13.9105 1.55625 15.5001 3.42292C17.0897 1.55625 19.5251 0.375 22.0626 0.375C26.5543 0.375 30.0834 3.90417 30.0834 8.39583C30.0834 13.9083 25.1251 18.4 17.6147 25.225L15.5001 27.1354Z"/>
        </symbol>


        <symbol id="icon-user" viewBox="0 0 31 31">
            <title>user</title>
            <path d="M15.5 0.916672C7.44996 0.916672 0.916626 7.45001 0.916626 15.5C0.916626 23.55 7.44996 30.0833 15.5 30.0833C23.55 30.0833 30.0833 23.55 30.0833 15.5C30.0833 7.45001 23.55 0.916672 15.5 0.916672ZM15.5 5.29167C17.9208 5.29167 19.875 7.24584 19.875 9.66667C19.875 12.0875 17.9208 14.0417 15.5 14.0417C13.0791 14.0417 11.125 12.0875 11.125 9.66667C11.125 7.24584 13.0791 5.29167 15.5 5.29167ZM15.5 26C11.8541 26 8.63121 24.1333 6.74996 21.3042C6.79371 18.4021 12.5833 16.8125 15.5 16.8125C18.402 16.8125 24.2062 18.4021 24.25 21.3042C22.3687 24.1333 19.1458 26 15.5 26Z"/>
        </symbol>

        <symbol id="icon-exit" viewBox="0 0 15 12">
            <title>exit</title>
            <path d="M10.8333 2.66667L9.89325 3.60667L11.6133 5.33333H4.83325V6.66667H11.6133L9.89325 8.38667L10.8333 9.33333L14.1666 6L10.8333 2.66667ZM2.16659 1.33333H7.49992V0H2.16659C1.43325 0 0.833252 0.6 0.833252 1.33333V10.6667C0.833252 11.4 1.43325 12 2.16659 12H7.49992V10.6667H2.16659V1.33333Z"/>
        </symbol>

        <symbol id="icon-menu" viewBox="0 0 18 11">
            <title>Menu</title>
            <path d="M2 6.5H16V4.5H2V6.5ZM0 10.5H14V8.5H0V10.5ZM4 0.5V2.5H18V0.5H4Z"/>
        </symbol>

        <symbol id="icon-search" viewBox="0 0 19 19">
            <title>Search</title>
            <path d="M13.6458 11.5833H12.8229L12.5312 11.3021C13.5521 10.1146 14.1667 8.57292 14.1667 6.89583C14.1667 3.15625 11.1354 0.125 7.39583 0.125C3.65625 0.125 0.625 3.15625 0.625 6.89583C0.625 10.6354 3.65625 13.6667 7.39583 13.6667C9.07292 13.6667 10.6146 13.0521 11.8021 12.0312L12.0833 12.3229V13.1458L17.2917 18.3438L18.8438 16.7917L13.6458 11.5833ZM7.39583 11.5833C4.80208 11.5833 2.70833 9.48958 2.70833 6.89583C2.70833 4.30208 4.80208 2.20833 7.39583 2.20833C9.98958 2.20833 12.0833 4.30208 12.0833 6.89583C12.0833 9.48958 9.98958 11.5833 7.39583 11.5833Z"/>
        </symbol>


        <symbol id="icon-add" viewBox="0 0 21 21">
            <title>Add</title>
            <path d="M10.5007 0.0834961C4.75065 0.0834961 0.0839844 4.75016 0.0839844 10.5002C0.0839844 16.2502 4.75065 20.9168 10.5007 20.9168C16.2507 20.9168 20.9173 16.2502 20.9173 10.5002C20.9173 4.75016 16.2507 0.0834961 10.5007 0.0834961ZM15.709 11.5418H11.5423V15.7085H9.45899V11.5418H5.29232V9.4585H9.45899V5.29183H11.5423V9.4585H15.709V11.5418Z"/>
        </symbol>

        <symbol id="icon-instagram" viewBox="0 0 56.7 56.7">
            <title>Instagram</title>
            <path d="M28.2,16.7c-7,0-12.8,5.7-12.8,12.8s5.7,12.8,12.8,12.8S41,36.5,41,29.5S35.2,16.7,28.2,16.7z M28.2,37.7 c-4.5,0-8.2-3.7-8.2-8.2s3.7-8.2,8.2-8.2s8.2,3.7,8.2,8.2S32.7,37.7,28.2,37.7z"/>
            <circle cx="41.5" cy="16.4" r="2.9"/>
            <path d="M49,8.9c-2.6-2.7-6.3-4.1-10.5-4.1H17.9c-8.7,0-14.5,5.8-14.5,14.5v20.5c0,4.3,1.4,8,4.2,10.7c2.7,2.6,6.3,3.9,10.4,3.9 h20.4c4.3,0,7.9-1.4,10.5-3.9c2.7-2.6,4.1-6.3,4.1-10.6V19.3C53,15.1,51.6,11.5,49,8.9z M48.6,39.9c0,3.1-1.1,5.6-2.9,7.3 s-4.3,2.6-7.3,2.6H18c-3,0-5.5-0.9-7.3-2.6C8.9,45.4,8,42.9,8,39.8V19.3c0-3,0.9-5.5,2.7-7.3c1.7-1.7,4.3-2.6,7.3-2.6h20.6 c3,0,5.5,0.9,7.3,2.7c1.7,1.8,2.7,4.3,2.7,7.2V39.9L48.6,39.9z"/>
        </symbol>

        <symbol id="icon-telegram" viewBox="0 0 512 512">
            <title>Telegram</title>
            <path d="M484.689,98.231l-69.417,327.37c-5.237,23.105-18.895,28.854-38.304,17.972L271.2,365.631l-51.034,49.086 c-5.647,5.647-10.372,10.372-21.256,10.372l7.598-107.722L402.539,140.23c8.523-7.598-1.848-11.809-13.247-4.21L146.95,288.614 L42.619,255.96c-22.694-7.086-23.104-22.695,4.723-33.579L455.423,65.166C474.316,58.081,490.85,69.375,484.689,98.231z"/>
        </symbol>

        <symbol id="icon-filter" viewBox="0 0 16 16">
            <title>Filter</title>
            <path d="M0.250003 1.61C2.27 4.2 6 9 6 9V15C6 15.55 6.45 16 7 16H9C9.55 16 10 15.55 10 15V9C10 9 13.72 4.2 15.74 1.61C16.25 0.95 15.78 0 14.95 0H1.04C0.210003 0 -0.259997 0.95 0.250003 1.61Z"/>
        </symbol>

        <symbol id="icon-cross" viewBox="0 0 14 15">
            <title>Cross</title>
            <path d="M14 1.91L12.59 0.5L7 6.09L1.41 0.5L0 1.91L5.59 7.5L0 13.09L1.41 14.5L7 8.91L12.59 14.5L14 13.09L8.41 7.5L14 1.91Z"/>
        </symbol>

        <symbol id="icon-location" viewBox="0 0 18 26">
            <title>Location</title>
            <path d="M9 0.500009C4.1625 0.500009 0.25 4.41251 0.25 9.25001C0.25 15.8125 9 25.5 9 25.5C9 25.5 17.75 15.8125 17.75 9.25001C17.75 4.41251 13.8375 0.500009 9 0.500009ZM9 12.375C7.275 12.375 5.875 10.975 5.875 9.25001C5.875 7.52501 7.275 6.12501 9 6.12501C10.725 6.12501 12.125 7.52501 12.125 9.25001C12.125 10.975 10.725 12.375 9 12.375Z"/>
        </symbol>
    </defs>
</svg>
