<svg style="position: absolute; width: 0; height: 0;" width="0" height="0" version="1.1" xmlns="http://www.w3.org/2000/svg" xmlns:xlink="http://www.w3.org/1999/xlink">
    <defs>


        <symbol id="icon-heart-solid" viewBox="0 0 31 28">
            <title>heart solid</title>
            <path d="M15.5001 27.1354L13.3855 25.2104C5.87508 18.4 0.916748 13.9083 0.916748 8.39583C0.916748 3.90417 4.44592 0.375 8.93758 0.375C11.4751 0.375 13.9105 1.55625 15.5001 3.42292C17.0897 1.55625 19.5251 0.375 22.0626 0.375C26.5543 0.375 30.0834 3.90417 30.0834 8.39583C30.0834 13.9083 25.1251 18.4 17.6147 25.225L15.5001 27.1354Z"/>
        </symbol>

        <symbol id="icon-user" viewBox="0 0 31 31">
            <title>user</title>
            <path d="M15.5 0.916672C7.44996 0.916672 0.916626 7.45001 0.916626 15.5C0.916626 23.55 7.44996 30.0833 15.5 30.0833C23.55 30.0833 30.0833 23.55 30.0833 15.5C30.0833 7.45001 23.55 0.916672 15.5 0.916672ZM15.5 5.29167C17.9208 5.29167 19.875 7.24584 19.875 9.66667C19.875 12.0875 17.9208 14.0417 15.5 14.0417C13.0791 14.0417 11.125 12.0875 11.125 9.66667C11.125 7.24584 13.0791 5.29167 15.5 5.29167ZM15.5 26C11.8541 26 8.63121 24.1333 6.74996 21.3042C6.79371 18.4021 12.5833 16.8125 15.5 16.8125C18.402 16.8125 24.2062 18.4021 24.25 21.3042C22.3687 24.1333 19.1458 26 15.5 26Z"/>
        </symbol>

        <symbol id="icon-exit" viewBox="0 0 15 12">
            <title>exit</title>
            <path d="M10.8333 2.66667L9.89325 3.60667L11.6133 5.33333H4.83325V6.66667H11.6133L9.89325 8.38667L10.8333 9.33333L14.1666 6L10.8333 2.66667ZM2.16659 1.33333H7.49992V0H2.16659C1.43325 0 0.833252 0.6 0.833252 1.33333V10.6667C0.833252 11.4 1.43325 12 2.16659 12H7.49992V10.6667H2.16659V1.33333Z"/>
        </symbol>

        <symbol id="icon-menu" viewBox="0 0 18 11">
            <title>Menu</title>
            <path d="M2 6.5H16V4.5H2V6.5ZM0 10.5H14V8.5H0V10.5ZM4 0.5V2.5H18V0.5H4Z"/>
        </symbol>

        <symbol id="icon-search" viewBox="0 0 19 19">
            <title>Search</title>
            <path d="M13.6458 11.5833H12.8229L12.5312 11.3021C13.5521 10.1146 14.1667 8.57292 14.1667 6.89583C14.1667 3.15625 11.1354 0.125 7.39583 0.125C3.65625 0.125 0.625 3.15625 0.625 6.89583C0.625 10.6354 3.65625 13.6667 7.39583 13.6667C9.07292 13.6667 10.6146 13.0521 11.8021 12.0312L12.0833 12.3229V13.1458L17.2917 18.3438L18.8438 16.7917L13.6458 11.5833ZM7.39583 11.5833C4.80208 11.5833 2.70833 9.48958 2.70833 6.89583C2.70833 4.30208 4.80208 2.20833 7.39583 2.20833C9.98958 2.20833 12.0833 4.30208 12.0833 6.89583C12.0833 9.48958 9.98958 11.5833 7.39583 11.5833Z"/>
        </symbol>


        <symbol id="icon-add" viewBox="0 0 21 21">
            <title>add</title>
            <path d="M10.5007 0.0834961C4.75065 0.0834961 0.0839844 4.75016 0.0839844 10.5002C0.0839844 16.2502 4.75065 20.9168 10.5007 20.9168C16.2507 20.9168 20.9173 16.2502 20.9173 10.5002C20.9173 4.75016 16.2507 0.0834961 10.5007 0.0834961ZM15.709 11.5418H11.5423V15.7085H9.45899V11.5418H5.29232V9.4585H9.45899V5.29183H11.5423V9.4585H15.709V11.5418Z"/>
        </symbol>
    </defs>
</svg>
