<svg style="position: absolute; width: 0; height: 0;" width="0" height="0" version="1.1" xmlns="http://www.w3.org/2000/svg" xmlns:xlink="http://www.w3.org/1999/xlink">
    <defs>
        <symbol id="icon-heart" viewBox="0 0 22 20">
            <title>heart</title>
            <path d="M10.0748 17.8188L10.0733 17.8175C7.22058 15.2543 4.93437 13.1977 3.34931 11.2776C1.77544 9.37099 1 7.72299 1 5.99455C1 3.19855 3.20558 1 6.05 1C7.66464 1 9.22737 1.74961 10.2416 2.92972L11 3.81215L11.7584 2.92972C12.7726 1.74961 14.3354 1 15.95 1C18.7944 1 21 3.19855 21 5.99455C21 7.72301 20.2246 9.37105 18.6505 11.2792C17.0654 13.2006 14.7796 15.2596 11.9272 17.8279C11.9268 17.8283 11.9263 17.8287 11.9259 17.8291L11.0025 18.6556L10.0748 17.8188Z"/>
        </symbol>

        <symbol id="icon-heart-solid" viewBox="0 0 31 28">
            <title>heart solid</title>
            <path d="M15.5001 27.1354L13.3855 25.2104C5.87508 18.4 0.916748 13.9083 0.916748 8.39583C0.916748 3.90417 4.44592 0.375 8.93758 0.375C11.4751 0.375 13.9105 1.55625 15.5001 3.42292C17.0897 1.55625 19.5251 0.375 22.0626 0.375C26.5543 0.375 30.0834 3.90417 30.0834 8.39583C30.0834 13.9083 25.1251 18.4 17.6147 25.225L15.5001 27.1354Z"/>
        </symbol>


        <symbol id="icon-user" viewBox="0 0 31 31">
            <title>user</title>
            <path d="M15.5 0.916672C7.44996 0.916672 0.916626 7.45001 0.916626 15.5C0.916626 23.55 7.44996 30.0833 15.5 30.0833C23.55 30.0833 30.0833 23.55 30.0833 15.5C30.0833 7.45001 23.55 0.916672 15.5 0.916672ZM15.5 5.29167C17.9208 5.29167 19.875 7.24584 19.875 9.66667C19.875 12.0875 17.9208 14.0417 15.5 14.0417C13.0791 14.0417 11.125 12.0875 11.125 9.66667C11.125 7.24584 13.0791 5.29167 15.5 5.29167ZM15.5 26C11.8541 26 8.63121 24.1333 6.74996 21.3042C6.79371 18.4021 12.5833 16.8125 15.5 16.8125C18.402 16.8125 24.2062 18.4021 24.25 21.3042C22.3687 24.1333 19.1458 26 15.5 26Z"/>
        </symbol>

        <symbol id="icon-exit" viewBox="0 0 15 12">
            <title>exit</title>
            <path d="M10.8333 2.66667L9.89325 3.60667L11.6133 5.33333H4.83325V6.66667H11.6133L9.89325 8.38667L10.8333 9.33333L14.1666 6L10.8333 2.66667ZM2.16659 1.33333H7.49992V0H2.16659C1.43325 0 0.833252 0.6 0.833252 1.33333V10.6667C0.833252 11.4 1.43325 12 2.16659 12H7.49992V10.6667H2.16659V1.33333Z"/>
        </symbol>

        <symbol id="icon-menu" viewBox="0 0 18 11">
            <title>Menu</title>
            <path d="M2 6.5H16V4.5H2V6.5ZM0 10.5H14V8.5H0V10.5ZM4 0.5V2.5H18V0.5H4Z"/>
        </symbol>

        <symbol id="icon-search" viewBox="0 0 19 19">
            <title>Search</title>
            <path d="M13.6458 11.5833H12.8229L12.5312 11.3021C13.5521 10.1146 14.1667 8.57292 14.1667 6.89583C14.1667 3.15625 11.1354 0.125 7.39583 0.125C3.65625 0.125 0.625 3.15625 0.625 6.89583C0.625 10.6354 3.65625 13.6667 7.39583 13.6667C9.07292 13.6667 10.6146 13.0521 11.8021 12.0312L12.0833 12.3229V13.1458L17.2917 18.3438L18.8438 16.7917L13.6458 11.5833ZM7.39583 11.5833C4.80208 11.5833 2.70833 9.48958 2.70833 6.89583C2.70833 4.30208 4.80208 2.20833 7.39583 2.20833C9.98958 2.20833 12.0833 4.30208 12.0833 6.89583C12.0833 9.48958 9.98958 11.5833 7.39583 11.5833Z"/>
        </symbol>


        <symbol id="icon-add" viewBox="0 0 21 21">
            <title>Add</title>
            <path d="M10.5007 0.0834961C4.75065 0.0834961 0.0839844 4.75016 0.0839844 10.5002C0.0839844 16.2502 4.75065 20.9168 10.5007 20.9168C16.2507 20.9168 20.9173 16.2502 20.9173 10.5002C20.9173 4.75016 16.2507 0.0834961 10.5007 0.0834961ZM15.709 11.5418H11.5423V15.7085H9.45899V11.5418H5.29232V9.4585H9.45899V5.29183H11.5423V9.4585H15.709V11.5418Z"/>
        </symbol>

        <symbol id="icon-instagram" viewBox="0 0 56.7 56.7">
            <title>Instagram</title>
            <path d="M28.2,16.7c-7,0-12.8,5.7-12.8,12.8s5.7,12.8,12.8,12.8S41,36.5,41,29.5S35.2,16.7,28.2,16.7z M28.2,37.7 c-4.5,0-8.2-3.7-8.2-8.2s3.7-8.2,8.2-8.2s8.2,3.7,8.2,8.2S32.7,37.7,28.2,37.7z"/>
            <circle cx="41.5" cy="16.4" r="2.9"/>
            <path d="M49,8.9c-2.6-2.7-6.3-4.1-10.5-4.1H17.9c-8.7,0-14.5,5.8-14.5,14.5v20.5c0,4.3,1.4,8,4.2,10.7c2.7,2.6,6.3,3.9,10.4,3.9 h20.4c4.3,0,7.9-1.4,10.5-3.9c2.7-2.6,4.1-6.3,4.1-10.6V19.3C53,15.1,51.6,11.5,49,8.9z M48.6,39.9c0,3.1-1.1,5.6-2.9,7.3 s-4.3,2.6-7.3,2.6H18c-3,0-5.5-0.9-7.3-2.6C8.9,45.4,8,42.9,8,39.8V19.3c0-3,0.9-5.5,2.7-7.3c1.7-1.7,4.3-2.6,7.3-2.6h20.6 c3,0,5.5,0.9,7.3,2.7c1.7,1.8,2.7,4.3,2.7,7.2V39.9L48.6,39.9z"/>
        </symbol>

        <symbol id="icon-telegram" viewBox="0 0 512 512">
            <title>Telegram</title>
            <path d="M484.689,98.231l-69.417,327.37c-5.237,23.105-18.895,28.854-38.304,17.972L271.2,365.631l-51.034,49.086 c-5.647,5.647-10.372,10.372-21.256,10.372l7.598-107.722L402.539,140.23c8.523-7.598-1.848-11.809-13.247-4.21L146.95,288.614 L42.619,255.96c-22.694-7.086-23.104-22.695,4.723-33.579L455.423,65.166C474.316,58.081,490.85,69.375,484.689,98.231z"/>
        </symbol>

        
        <symbol id="icon-facebook" viewBox="0 0 264 512">
            <title>Facebook</title>
            <path d="M76.7 512V283H0v-91h76.7v-71.7C76.7 42.4 124.3.0 193.8.0c33.3.0 61.9 2.5 70.2 3.6V85h-48.2c-37.8.0-45.1 18-45.1 44.3V192H256l-11.7 91h-73.6v229"/>
        </symbol>

        <symbol id="icon-linkedin" viewBox="0 0 448.1 448">
            <title>Linkedin</title>
            <path d="M100.3 448H7.4V148.9h92.9V448zM53.8 108.1C24.1 108.1.0 83.5.0 53.8S24.1.0 53.8.0s53.8 24.1 53.8 53.8-24.1 54.3-53.8 54.3zM448 448h-92.7V302.4c0-34.7-.7-79.2-48.3-79.2-48.3.0-55.7 37.7-55.7 76.7V448h-92.8V148.9h89.1v40.8h1.3c12.4-23.5 42.7-48.3 87.9-48.3 94 0 111.3 61.9 111.3 142.3V448z"/>
        </symbol>

        <symbol id="icon-google" viewBox="0 0 1792 1792">
            <title>Google</title>
            <path d="M896 786h725q12 67 12 128 0 217-91 387.5t-259.5 266.5-386.5 96q-157 0-299-60.5t-245-163.5-163.5-245-60.5-299 60.5-299 163.5-245 245-163.5 299-60.5q300 0 515 201l-209 201q-123-119-306-119-129 0-238.5 65t-173.5 176.5-64 243.5 64 243.5 173.5 176.5 238.5 65q87 0 160-24t120-60 82-82 51.5-87 22.5-78h-436v-264z"/>
        </symbol>

        <symbol id="icon-filter" viewBox="0 0 16 16">
            <title>Filter</title>
            <path d="M0.250003 1.61C2.27 4.2 6 9 6 9V15C6 15.55 6.45 16 7 16H9C9.55 16 10 15.55 10 15V9C10 9 13.72 4.2 15.74 1.61C16.25 0.95 15.78 0 14.95 0H1.04C0.210003 0 -0.259997 0.95 0.250003 1.61Z"/>
        </symbol>

        <symbol id="icon-cross" viewBox="0 0 14 15">
            <title>Cross</title>
            <path d="M14 1.91L12.59 0.5L7 6.09L1.41 0.5L0 1.91L5.59 7.5L0 13.09L1.41 14.5L7 8.91L12.59 14.5L14 13.09L8.41 7.5L14 1.91Z"/>
        </symbol>

        <symbol id="icon-location" viewBox="0 0 18 26">
            <title>Location</title>
            <path d="M9 0.500009C4.1625 0.500009 0.25 4.41251 0.25 9.25001C0.25 15.8125 9 25.5 9 25.5C9 25.5 17.75 15.8125 17.75 9.25001C17.75 4.41251 13.8375 0.500009 9 0.500009ZM9 12.375C7.275 12.375 5.875 10.975 5.875 9.25001C5.875 7.52501 7.275 6.12501 9 6.12501C10.725 6.12501 12.125 7.52501 12.125 9.25001C12.125 10.975 10.725 12.375 9 12.375Z"/>
        </symbol>

        <symbol id="icon-table" viewBox="0 0 19 19">
            <title>Table</title>
            <path d="M0.125 0.125V18.875H18.875V0.125H0.125ZM8.45833 16.7917H2.20833V10.5417H8.45833V16.7917ZM8.45833 8.45833H2.20833V2.20833H8.45833V8.45833ZM16.7917 16.7917H10.5417V10.5417H16.7917V16.7917ZM16.7917 8.45833H10.5417V2.20833H16.7917V8.45833Z"/>
        </symbol>

        <symbol id="icon-list" viewBox="0 0 19 13">
            <title>List</title>
            <path d="M0.125 12.75H12.625V10.6667H0.125V12.75ZM0.125 0.25V2.33333H18.875V0.25H0.125ZM0.125 7.54167H18.875V5.45833H0.125V7.54167Z"/>
        </symbol>

        <symbol id="icon-calendar" viewBox="0 0 20 22">
            <title>Calendar</title>
            <path d="M18 2H17V0H15V2H5V0H3V2H2C0.9 2 0 2.9 0 4V20C0 21.1 0.9 22 2 22H18C19.1 22 20 21.1 20 20V4C20 2.9 19.1 2 18 2ZM18 20H2V7H18V20Z"/>
        </symbol>

        <symbol id="icon-eye" viewBox="0 0 22 16">
            <title>Eye</title>
            <path d="M11 0.5C6 0.5 1.73 3.61 0 8C1.73 12.39 6 15.5 11 15.5C16 15.5 20.27 12.39 22 8C20.27 3.61 16 0.5 11 0.5ZM11 13C8.24 13 6 10.76 6 8C6 5.24 8.24 3 11 3C13.76 3 16 5.24 16 8C16 10.76 13.76 13 11 13ZM11 5C9.34 5 8 6.34 8 8C8 9.66 9.34 11 11 11C12.66 11 14 9.66 14 8C14 6.34 12.66 5 11 5Z"/>
        </symbol>

        <symbol id="icon-chevron-right" viewBox="0 0 6 8">
            <title>Chevron Right</title>
            <path d="M0.726563 7.06L3.7799 4L0.726563 0.94L1.66656 0L5.66656 4L1.66656 8L0.726563 7.06Z"/>
        </symbol>

        <symbol id="icon-chevron-left" viewBox="0 0 9 13">
            <title>Chevron Left</title>
            <path d="M8.05225 11.2813L3.28141 6.5L8.05225 1.71875L6.5835 0.25L0.333495 6.5L6.5835 12.75L8.05225 11.2813Z"/>
        </symbol>

        <symbol id="icon-arrow-left" viewBox="0 0 18 12">
            <title>Arrow Left</title>
            <path d="M18 5H3.83L7.41 1.41L6 0L0 6L6 12L7.41 10.59L3.83 7H18V5Z" />
        </symbol>

        <symbol id="icon-add-image" viewBox="0 0 50 50">
            <title>Add Image</title>
            <path d="M42.1053 13.1579V21.0263C42.1053 21.0263 36.8684 21.0526 36.8421 21.0263V13.1579H28.9474C28.9474 13.1579 28.9737 7.92105 28.9474 7.89474H36.8421V0H42.1053V7.89474H50V13.1579H42.1053ZM34.2105 23.6842V15.7895H26.3158V7.89474H5.26316C2.36842 7.89474 0 10.2632 0 13.1579V44.7368C0 47.6316 2.36842 50 5.26316 50H36.8421C39.7368 50 42.1053 47.6316 42.1053 44.7368V23.6842H34.2105ZM5.26316 44.7368L13.1579 34.2105L18.4211 42.1053L26.3158 31.5789L36.8421 44.7368H5.26316Z"/>
        </symbol>

        <symbol id="icon-border-dashed" viewBox="0 0 200 200">
            <title>Border Dashed</title>
            <rect width='100%' height='100%' fill='none' stroke='#406A85' stroke-width='6' stroke-dasharray='25%' stroke-dashoffset='26' stroke-linecap='round'/>
        </symbol>

        <symbol id="icon-border-dashed-draw" viewBox="0 0 135 135">
            <title>Border Dashed</title>
            <path d="M0 0V-1.5H-1.5V0H0ZM135 0H136.5V-1.5H135V0ZM135 135V136.5H136.5V135H135ZM0 135H-1.5V136.5H0V135ZM-1.5 16.875C-1.5 17.7034 -0.828427 18.375 0 18.375C0.828427 18.375 1.5 17.7034 1.5 16.875H-1.5ZM1.5 50.625C1.5 49.7966 0.828427 49.125 0 49.125C-0.828427 49.125 -1.5 49.7966 -1.5 50.625H1.5ZM-1.5 84.375C-1.5 85.2034 -0.828427 85.875 0 85.875C0.828427 85.875 1.5 85.2034 1.5 84.375H-1.5ZM1.5 118.125C1.5 117.297 0.828427 116.625 0 116.625C-0.828427 116.625 -1.5 117.297 -1.5 118.125H1.5ZM16.875 136.5C17.7034 136.5 18.375 135.828 18.375 135C18.375 134.172 17.7034 133.5 16.875 133.5V136.5ZM50.625 133.5C49.7966 133.5 49.125 134.172 49.125 135C49.125 135.828 49.7966 136.5 50.625 136.5V133.5ZM84.375 136.5C85.2034 136.5 85.875 135.828 85.875 135C85.875 134.172 85.2034 133.5 84.375 133.5V136.5ZM118.125 133.5C117.297 133.5 116.625 134.172 116.625 135C116.625 135.828 117.297 136.5 118.125 136.5V133.5ZM136.5 118.125C136.5 117.297 135.828 116.625 135 116.625C134.172 116.625 133.5 117.297 133.5 118.125H136.5ZM133.5 84.375C133.5 85.2034 134.172 85.875 135 85.875C135.828 85.875 136.5 85.2034 136.5 84.375H133.5ZM136.5 50.625C136.5 49.7966 135.828 49.125 135 49.125C134.172 49.125 133.5 49.7966 133.5 50.625H136.5ZM133.5 16.875C133.5 17.7034 134.172 18.375 135 18.375C135.828 18.375 136.5 17.7034 136.5 16.875H133.5ZM118.125 -1.5C117.297 -1.5 116.625 -0.828427 116.625 0C116.625 0.828427 117.297 1.5 118.125 1.5V-1.5ZM84.375 1.5C85.2034 1.5 85.875 0.828427 85.875 0C85.875 -0.828427 85.2034 -1.5 84.375 -1.5V1.5ZM50.625 -1.5C49.7966 -1.5 49.125 -0.828427 49.125 0C49.125 0.828427 49.7966 1.5 50.625 1.5V-1.5ZM16.875 1.5C17.7034 1.5 18.375 0.828427 18.375 0C18.375 -0.828427 17.7034 -1.5 16.875 -1.5V1.5ZM-1.5 0V16.875H1.5V0H-1.5ZM-1.5 50.625V84.375H1.5V50.625H-1.5ZM-1.5 118.125V135H1.5V118.125H-1.5ZM0 136.5H16.875V133.5H0V136.5ZM50.625 136.5H84.375V133.5H50.625V136.5ZM118.125 136.5H135V133.5H118.125V136.5ZM136.5 135V118.125H133.5V135H136.5ZM136.5 84.375V50.625H133.5V84.375H136.5ZM136.5 16.875V0H133.5V16.875H136.5ZM135 -1.5H118.125V1.5H135V-1.5ZM84.375 -1.5H50.625V1.5H84.375V-1.5ZM16.875 -1.5H0V1.5H16.875V-1.5ZM0 0V-3H-3V0H0ZM135 0H138V-3H135V0ZM135 135V138H138V135H135ZM0 135H-3V138H0V135ZM-3 16.875C-3 18.5319 -1.65685 19.875 0 19.875C1.65685 19.875 3 18.5319 3 16.875H-3ZM3 50.625C3 48.9681 1.65685 47.625 0 47.625C-1.65685 47.625 -3 48.9681 -3 50.625H3ZM-3 84.375C-3 86.0319 -1.65685 87.375 0 87.375C1.65685 87.375 3 86.0319 3 84.375H-3ZM3 118.125C3 116.468 1.65685 115.125 0 115.125C-1.65685 115.125 -3 116.468 -3 118.125H3ZM16.875 138C18.5319 138 19.875 136.657 19.875 135C19.875 133.343 18.5319 132 16.875 132V138ZM50.625 132C48.9681 132 47.625 133.343 47.625 135C47.625 136.657 48.9681 138 50.625 138V132ZM84.375 138C86.0319 138 87.375 136.657 87.375 135C87.375 133.343 86.0319 132 84.375 132V138ZM118.125 132C116.468 132 115.125 133.343 115.125 135C115.125 136.657 116.468 138 118.125 138V132ZM138 118.125C138 116.468 136.657 115.125 135 115.125C133.343 115.125 132 116.468 132 118.125H138ZM132 84.375C132 86.0319 133.343 87.375 135 87.375C136.657 87.375 138 86.0319 138 84.375H132ZM138 50.625C138 48.9681 136.657 47.625 135 47.625C133.343 47.625 132 48.9681 132 50.625H138ZM132 16.875C132 18.5319 133.343 19.875 135 19.875C136.657 19.875 138 18.5319 138 16.875H132ZM118.125 -3C116.468 -3 115.125 -1.65685 115.125 0C115.125 1.65685 116.468 3 118.125 3V-3ZM84.375 3C86.0319 3 87.375 1.65685 87.375 0C87.375 -1.65685 86.0319 -3 84.375 -3V3ZM50.625 -3C48.9681 -3 47.625 -1.65685 47.625 0C47.625 1.65685 48.9681 3 50.625 3V-3ZM16.875 3C18.5319 3 19.875 1.65685 19.875 0C19.875 -1.65685 18.5319 -3 16.875 -3V3ZM-3 0V16.875H3V0H-3ZM-3 50.625V84.375H3V50.625H-3ZM-3 118.125V135H3V118.125H-3ZM0 138H16.875V132H0V138ZM50.625 138H84.375V132H50.625V138ZM118.125 138H135V132H118.125V138ZM138 135V118.125H132V135H138ZM138 84.375V50.625H132V84.375H138ZM138 16.875V0H132V16.875H138ZM135 -3H118.125V3H135V-3ZM84.375 -3H50.625V3H84.375V-3ZM16.875 -3H0V3H16.875V-3Z"/>
        </symbol>
    </defs>
</svg>
