<svg width="1500" height="390" viewBox="0 0 150 39" fill="none" xmlns="http://www.w3.org/2000/svg">
<path d="M2.8152 4.7256C1.8632 4.7256 1.36 4.032 1.3056 2.6448C1.3056 1.2848 1.8088 0.604799 2.8152 0.604799H20.7264C21.624 0.604799 22.3176 0.754399 22.8072 1.0536C23.2968 1.3256 23.5688 1.7064 23.6232 2.196C23.6504 2.6584 23.6368 3.1072 23.5824 3.5424C23.5552 3.9504 23.46 4.2632 23.2968 4.4808L7.2216 28.92H21.9912C22.9976 28.92 23.5008 29.5864 23.5008 30.9192C23.5552 32.3336 23.052 33.0408 21.9912 33.0408H3.7128C1.9176 33.0408 0.952 32.4968 0.816 31.4088C0.7616 30.9464 0.7616 30.5248 0.816 30.144C0.8704 29.736 0.9792 29.4232 1.1424 29.2056C1.632 28.444 2.1352 27.6552 2.652 26.8392C3.196 26.0232 3.7944 25.1256 4.4472 24.1464C5.1 23.1672 5.8208 22.0656 6.6096 20.8416C7.4256 19.6176 8.3504 18.2304 9.384 16.68C10.4176 15.1024 11.5736 13.3344 12.852 11.376C14.1576 9.4176 15.6264 7.2008 17.2584 4.7256H2.8152Z" fill="#8DC434"/>
<path d="M33.5615 33C32.7183 33 31.9159 32.8912 31.1543 32.6736C30.3927 32.4288 29.6583 32.0888 28.9511 31.6536V31.6944C27.6183 30.8512 26.9519 29.3008 26.9519 27.0432V25.044C26.9519 23.9288 27.1423 22.9632 27.5231 22.1472C27.9311 21.304 28.4887 20.6376 29.1959 20.148H29.1551C29.8351 19.6856 30.5559 19.3456 31.3175 19.128C32.0791 18.8832 32.8135 18.7608 33.5207 18.7608H42.5375V14.9664C42.5375 14.2864 42.3199 13.6744 41.8847 13.1304C41.4767 12.5592 40.7695 12.2736 39.7631 12.2736H34.9895C33.9559 12.2736 33.2351 12.532 32.8271 13.0488C32.4463 13.5384 32.2559 14.1232 32.2559 14.8032V15.1296C32.2559 16.544 31.4943 17.2512 29.9711 17.2512C28.4479 17.2512 27.6863 16.544 27.6863 15.1296V14.7624C27.6863 13.6472 27.8767 12.7088 28.2575 11.9472C28.6655 11.1856 29.2095 10.5464 29.8895 10.0296H29.8487C30.5559 9.5672 31.2903 9.1864 32.0519 8.8872C32.8407 8.588 33.5887 8.4384 34.2959 8.4384H40.4975C41.1775 8.4384 41.8983 8.588 42.6599 8.8872C43.4487 9.1864 44.1831 9.5672 44.8631 10.0296H44.8223C45.5295 10.5464 46.0735 11.2264 46.4543 12.0696C46.8351 12.8856 47.0255 13.8376 47.0255 14.9256V31.2864C47.0255 32.592 46.2775 33.2448 44.7815 33.2448C44.4823 33.2448 44.1967 33.2312 43.9247 33.204C43.6799 33.1768 43.4487 33.1088 43.2311 33C43.0407 32.864 42.8775 32.6872 42.7415 32.4696C42.6327 32.2248 42.5783 31.912 42.5783 31.5312L42.5375 22.596H34.2959C33.6975 22.596 33.2351 22.664 32.9087 22.8C32.5823 22.936 32.3239 23.1536 32.1335 23.4528C31.9159 23.9152 31.7527 24.2824 31.6439 24.5544C31.5623 24.7992 31.5215 25.0848 31.5215 25.4112V27.0024C31.5215 27.7096 31.7255 28.2536 32.1335 28.6344C32.5687 28.988 33.3031 29.1648 34.3367 29.1648H38.9063C39.9127 29.1648 40.4159 29.804 40.4159 31.0824C40.4159 31.6264 40.2935 32.0888 40.0487 32.4696C39.8039 32.8232 39.4231 33 38.9063 33H33.5615ZM60.5446 33C59.5655 33 59.0487 32.3608 58.9943 31.0824C58.9943 29.804 59.5111 29.1648 60.5446 29.1648H64.6655C65.6719 29.1648 66.3791 28.8792 66.7871 28.308C67.2223 27.7368 67.4399 27.1248 67.4399 26.472V14.9664C67.4399 14.2864 67.2223 13.6608 66.7871 13.0896C66.3791 12.4912 65.6583 12.2192 64.6247 12.2736H56.7911V36.7944C56.7911 38.0728 56.0431 38.712 54.547 38.712C53.0511 38.712 52.3031 38.0592 52.3031 36.7536V10.8456C52.3031 9.8936 52.5479 9.2544 53.0374 8.928C53.5271 8.6016 54.1255 8.4384 54.8326 8.4384H65.3999C66.1071 8.4384 66.8143 8.5608 67.5215 8.8056C68.2559 9.0504 69.0039 9.3904 69.7655 9.8256C70.4182 10.288 70.935 10.9408 71.3158 11.784C71.7239 12.6 71.9279 13.5656 71.9279 14.6808V26.7576C71.9279 28.988 71.2071 30.5792 69.7655 31.5312C68.2423 32.5104 66.7871 33 65.3999 33H60.5446ZM94.6716 2.3592C94.6716 1.0536 95.474 0.4008 97.0788 0.4008C98.7108 0.4008 99.5268 1.0536 99.5268 2.3592V31.2864C99.5268 32.592 98.7108 33.2448 97.0788 33.2448C95.474 33.2448 94.6716 32.592 94.6716 31.2864V2.3592ZM82.2684 31.2864C82.2684 32.592 81.4524 33.2448 79.8204 33.2448C78.2156 33.2448 77.4132 32.592 77.4132 31.2864V2.3592C77.4132 1.0536 78.2156 0.4008 79.8204 0.4008C81.4524 0.4008 82.2684 1.0536 82.2684 2.3592V31.2864ZM91.8156 16.1496C91.8156 17.1016 91.4892 17.904 90.8364 18.5568C90.1836 19.2096 89.3812 19.536 88.4292 19.536C87.5044 19.536 86.7156 19.2096 86.0628 18.5568C85.41 17.904 85.0836 17.1016 85.0836 16.1496C85.0836 15.1976 85.41 14.3952 86.0628 13.7424C86.7156 13.0896 87.5044 12.7632 88.4292 12.7632C89.3812 12.7632 90.1836 13.0896 90.8364 13.7424C91.4892 14.3952 91.8156 15.1976 91.8156 16.1496ZM124.761 26.5128C124.761 27.6008 124.57 28.5664 124.189 29.4096C123.809 30.2528 123.265 30.9328 122.557 31.4496H122.598C121.918 31.912 121.197 32.2928 120.436 32.592C119.674 32.864 118.94 33 118.233 33H111.664C110.984 33 110.249 32.864 109.461 32.592C108.699 32.2928 107.978 31.912 107.298 31.4496H107.339C106.632 30.9328 106.088 30.2528 105.707 29.4096C105.326 28.5664 105.136 27.6008 105.136 26.5128V10.152C105.136 8.8464 105.884 8.1936 107.38 8.1936C108.876 8.1936 109.624 8.8464 109.624 10.152V26.1864C109.624 26.948 109.814 27.6144 110.195 28.1856C110.549 28.8384 111.283 29.1648 112.398 29.1648H117.498C118.586 29.1648 119.307 28.8384 119.661 28.1856L119.62 28.2264C120.055 27.5736 120.273 26.8936 120.273 26.1864V10.152C120.273 8.8464 121.021 8.1936 122.517 8.1936C124.013 8.1936 124.761 8.8464 124.761 10.152V26.5128ZM134.326 31.2864C134.326 31.9392 134.095 32.4288 133.632 32.7552C133.17 33.0816 132.667 33.2448 132.123 33.2448C130.627 33.2448 129.879 32.592 129.879 31.2864V2.3184C129.879 1.0128 130.627 0.36 132.123 0.36C133.619 0.36 134.367 1.0128 134.367 2.3184V8.4384H142.976C144.363 8.4384 145.804 8.9552 147.3 9.9888C148.769 11.0224 149.504 12.6544 149.504 14.8848V27.0432C149.504 29.3008 148.837 30.8512 147.504 31.6944C146.172 32.5648 144.648 33 142.935 33H138.12C137.141 33 136.624 32.3608 136.57 31.0824C136.57 29.804 137.087 29.1648 138.12 29.1648H142.2C143.207 29.1648 143.928 28.988 144.363 28.6344C144.798 28.2536 145.016 27.7096 145.016 27.0024V15.252C145.016 14.5448 144.798 13.8648 144.363 13.212L144.404 13.2528C144.05 12.6 143.329 12.2736 142.241 12.2736H134.367L134.326 31.2864Z" fill="white"/>
</svg>
