<svg width="1050" height="350" viewBox="0 0 105 35" fill="none" xmlns="http://www.w3.org/2000/svg">
<path d="M1.932 8.596C1.27867 8.596 0.933333 8.12 0.896 7.168C0.896 6.23467 1.24133 5.768 1.932 5.768H14.224C14.84 5.768 15.316 5.87067 15.652 6.076C15.988 6.26267 16.1747 6.524 16.212 6.86C16.2307 7.17733 16.2213 7.48533 16.184 7.784C16.1653 8.064 16.1 8.27867 15.988 8.428L4.956 25.2H15.092C15.7827 25.2 16.128 25.6573 16.128 26.572C16.1653 27.5427 15.82 28.028 15.092 28.028H2.548C1.316 28.028 0.653333 27.6547 0.56 26.908C0.522667 26.5907 0.522667 26.3013 0.56 26.04C0.597333 25.76 0.672 25.5453 0.784 25.396C1.12 24.8733 1.46533 24.332 1.82 23.772C2.19333 23.212 2.604 22.596 3.052 21.924C3.5 21.252 3.99467 20.496 4.536 19.656C5.096 18.816 5.73067 17.864 6.44 16.8C7.14933 15.7173 7.94267 14.504 8.82 13.16C9.716 11.816 10.724 10.2947 11.844 8.596H1.932Z" fill="#8DC434"/>
<path d="M23.0324 28C22.4537 28 21.9031 27.9253 21.3804 27.776C20.8577 27.608 20.3537 27.3747 19.8684 27.076V27.104C18.9537 26.5253 18.4964 25.4613 18.4964 23.912V22.54C18.4964 21.7747 18.6271 21.112 18.8884 20.552C19.1684 19.9733 19.5511 19.516 20.0364 19.18H20.0084C20.4751 18.8627 20.9697 18.6293 21.4924 18.48C22.0151 18.312 22.5191 18.228 23.0044 18.228H29.1924V15.624C29.1924 15.1573 29.0431 14.7373 28.7444 14.364C28.4644 13.972 27.9791 13.776 27.2884 13.776H24.0124C23.3031 13.776 22.8084 13.9533 22.5284 14.308C22.2671 14.644 22.1364 15.0453 22.1364 15.512V15.736C22.1364 16.7067 21.6137 17.192 20.5684 17.192C19.5231 17.192 19.0004 16.7067 19.0004 15.736V15.484C19.0004 14.7187 19.1311 14.0747 19.3924 13.552C19.6724 13.0293 20.0457 12.5907 20.5124 12.236H20.4844C20.9697 11.9187 21.4737 11.6573 21.9964 11.452C22.5377 11.2467 23.0511 11.144 23.5364 11.144H27.7924C28.2591 11.144 28.7537 11.2467 29.2764 11.452C29.8177 11.6573 30.3217 11.9187 30.7884 12.236H30.7604C31.2457 12.5907 31.6191 13.0573 31.8804 13.636C32.1417 14.196 32.2724 14.8493 32.2724 15.596V26.824C32.2724 27.72 31.7591 28.168 30.7324 28.168C30.5271 28.168 30.3311 28.1587 30.1444 28.14C29.9764 28.1213 29.8177 28.0747 29.6684 28C29.5377 27.9067 29.4257 27.7853 29.3324 27.636C29.2577 27.468 29.2204 27.2533 29.2204 26.992L29.1924 20.86H23.5364C23.1257 20.86 22.8084 20.9067 22.5844 21C22.3604 21.0933 22.1831 21.2427 22.0524 21.448C21.9031 21.7653 21.7911 22.0173 21.7164 22.204C21.6604 22.372 21.6324 22.568 21.6324 22.792V23.884C21.6324 24.3693 21.7724 24.7427 22.0524 25.004C22.3511 25.2467 22.8551 25.368 23.5644 25.368H26.7004C27.3911 25.368 27.7364 25.8067 27.7364 26.684C27.7364 27.0573 27.6524 27.3747 27.4844 27.636C27.3164 27.8787 27.0551 28 26.7004 28H23.0324ZM41.5503 28C40.8783 28 40.5236 27.5613 40.4863 26.684C40.4863 25.8067 40.8409 25.368 41.5503 25.368H44.3783C45.0689 25.368 45.5543 25.172 45.8343 24.78C46.1329 24.388 46.2823 23.968 46.2823 23.52V15.624C46.2823 15.1573 46.1329 14.728 45.8343 14.336C45.5543 13.9253 45.0596 13.7387 44.3503 13.776H38.9743V30.604C38.9743 31.4813 38.4609 31.92 37.4343 31.92C36.4076 31.92 35.8943 31.472 35.8943 30.576V12.796C35.8943 12.1427 36.0623 11.704 36.3983 11.48C36.7343 11.256 37.1449 11.144 37.6303 11.144H44.8823C45.3676 11.144 45.8529 11.228 46.3383 11.396C46.8423 11.564 47.3556 11.7973 47.8783 12.096C48.3263 12.4133 48.6809 12.8613 48.9423 13.44C49.2223 14 49.3623 14.6627 49.3623 15.428V23.716C49.3623 25.2467 48.8676 26.3387 47.8783 26.992C46.8329 27.664 45.8343 28 44.8823 28H41.5503ZM64.9707 6.972C64.9707 6.076 65.5214 5.628 66.6227 5.628C67.7427 5.628 68.3027 6.076 68.3027 6.972V26.824C68.3027 27.72 67.7427 28.168 66.6227 28.168C65.5214 28.168 64.9707 27.72 64.9707 26.824V6.972ZM56.4587 26.824C56.4587 27.72 55.8987 28.168 54.7787 28.168C53.6774 28.168 53.1267 27.72 53.1267 26.824V6.972C53.1267 6.076 53.6774 5.628 54.7787 5.628C55.8987 5.628 56.4587 6.076 56.4587 6.972V26.824ZM63.0107 16.436C63.0107 17.0893 62.7867 17.64 62.3387 18.088C61.8907 18.536 61.3401 18.76 60.6867 18.76C60.0521 18.76 59.5107 18.536 59.0627 18.088C58.6147 17.64 58.3907 17.0893 58.3907 16.436C58.3907 15.7827 58.6147 15.232 59.0627 14.784C59.5107 14.336 60.0521 14.112 60.6867 14.112C61.3401 14.112 61.8907 14.336 62.3387 14.784C62.7867 15.232 63.0107 15.7827 63.0107 16.436ZM85.6201 23.548C85.6201 24.2947 85.4894 24.9573 85.2281 25.536C84.9667 26.1147 84.5934 26.5813 84.1081 26.936H84.1361C83.6694 27.2533 83.1747 27.5147 82.6521 27.72C82.1294 27.9067 81.6254 28 81.1401 28H76.6321C76.1654 28 75.6614 27.9067 75.1201 27.72C74.5974 27.5147 74.1027 27.2533 73.6361 26.936H73.6641C73.1787 26.5813 72.8054 26.1147 72.5441 25.536C72.2827 24.9573 72.1521 24.2947 72.1521 23.548V12.32C72.1521 11.424 72.6654 10.976 73.6921 10.976C74.7187 10.976 75.2321 11.424 75.2321 12.32V23.324C75.2321 23.8467 75.3627 24.304 75.6241 24.696C75.8667 25.144 76.3707 25.368 77.1361 25.368H80.6361C81.3827 25.368 81.8774 25.144 82.1201 24.696L82.0921 24.724C82.3907 24.276 82.5401 23.8093 82.5401 23.324V12.32C82.5401 11.424 83.0534 10.976 84.0801 10.976C85.1067 10.976 85.6201 11.424 85.6201 12.32V23.548ZM92.1845 26.824C92.1845 27.272 92.0259 27.608 91.7085 27.832C91.3912 28.056 91.0459 28.168 90.6725 28.168C89.6459 28.168 89.1325 27.72 89.1325 26.824V6.944C89.1325 6.048 89.6459 5.6 90.6725 5.6C91.6992 5.6 92.2125 6.048 92.2125 6.944V11.144H98.1205C99.0725 11.144 100.062 11.4987 101.089 12.208C102.097 12.9173 102.601 14.0373 102.601 15.568V23.912C102.601 25.4613 102.143 26.5253 101.229 27.104C100.314 27.7013 99.2685 28 98.0925 28H94.7885C94.1165 28 93.7619 27.5613 93.7245 26.684C93.7245 25.8067 94.0792 25.368 94.7885 25.368H97.5885C98.2792 25.368 98.7739 25.2467 99.0725 25.004C99.3712 24.7427 99.5205 24.3693 99.5205 23.884V15.82C99.5205 15.3347 99.3712 14.868 99.0725 14.42L99.1005 14.448C98.8579 14 98.3632 13.776 97.6165 13.776H92.2125L92.1845 26.824Z" fill="#132C3D"/>
<circle cx="60.6668" cy="16.4267" r="2.4" fill="#8DC434"/>
</svg>
