<svg width="305" height="102" viewBox="0 0 305 102" fill="none" xmlns="http://www.w3.org/2000/svg">
<path d="M6.3344 22.9132C4.44596 22.9132 3.44778 21.5373 3.33987 18.7856C3.33987 16.0878 4.33804 14.7389 6.3344 14.7389H41.8641C43.6447 14.7389 45.0205 15.0357 45.9917 15.6292C46.9629 16.1688 47.5025 16.9241 47.6104 17.8953C47.6644 18.8126 47.6374 19.7028 47.5295 20.5661C47.4755 21.3755 47.2867 21.996 46.9629 22.4276L15.0752 70.9067H44.3731C46.3694 70.9067 47.3676 72.2286 47.3676 74.8724C47.4755 77.6781 46.4773 79.0809 44.3731 79.0809H8.11493C4.55387 79.0809 2.63844 78.0018 2.36867 75.8436C2.26076 74.9264 2.26076 74.09 2.36867 73.3347C2.47658 72.5253 2.6924 71.9048 3.01613 71.4732C3.98733 69.9624 4.98551 68.3977 6.01067 66.7791C7.08978 65.1604 8.2768 63.3799 9.57173 61.4375C10.8667 59.4951 12.2965 57.3099 13.8612 54.8819C15.4799 52.4539 17.3144 49.7021 19.3647 46.6267C21.415 43.4972 23.7081 39.9901 26.244 36.1053C28.8339 32.2205 31.7475 27.8232 34.9848 22.9132H6.3344Z" fill="#8DC434"/>
<path d="M67.3246 79C65.652 79 64.0603 78.7842 62.5496 78.3525C61.0388 77.8669 59.582 77.1925 58.1792 76.3292V76.4101C55.5353 74.7375 54.2134 71.662 54.2134 67.1837V63.218C54.2134 61.0058 54.5911 59.0904 55.3465 57.4717C56.1558 55.7991 57.2619 54.4772 58.6648 53.506H58.5838C59.9327 52.5888 61.3625 51.9143 62.8733 51.4827C64.384 50.9971 65.8408 50.7543 67.2437 50.7543H85.13V43.2275C85.13 41.8786 84.6983 40.6646 83.835 39.5855C83.0257 38.4524 81.6228 37.8859 79.6265 37.8859H70.1573C68.107 37.8859 66.6772 38.3984 65.8678 39.4236C65.1124 40.3948 64.7348 41.5548 64.7348 42.9037V43.5512C64.7348 46.3569 63.224 47.7597 60.2025 47.7597C57.181 47.7597 55.6702 46.3569 55.6702 43.5512V42.8228C55.6702 40.6106 56.0479 38.7492 56.8033 37.2384C57.6126 35.7276 58.6917 34.4597 60.0406 33.4345H59.9597C61.3625 32.5173 62.8193 31.7619 64.3301 31.1684C65.8948 30.5749 67.3786 30.2781 68.7814 30.2781H81.0833C82.4322 30.2781 83.862 30.5749 85.3728 31.1684C86.9375 31.7619 88.3943 32.5173 89.7432 33.4345H89.6622C91.0651 34.4597 92.1442 35.8086 92.8996 37.4812C93.6549 39.0999 94.0326 40.9883 94.0326 43.1465V75.6008C94.0326 78.1907 92.5488 79.4856 89.5813 79.4856C88.9878 79.4856 88.4212 79.4586 87.8817 79.4047C87.3961 79.3507 86.9375 79.2158 86.5058 79C86.1281 78.7302 85.8044 78.3795 85.5346 77.9479C85.3188 77.4623 85.2109 76.8418 85.2109 76.0864L85.13 58.362H68.7814C67.5944 58.362 66.6772 58.4969 66.0297 58.7667C65.3822 59.0364 64.8696 59.4681 64.492 60.0616C64.0603 60.9788 63.7366 61.7072 63.5208 62.2468C63.3589 62.7324 63.278 63.2989 63.278 63.9464V67.1028C63.278 68.5056 63.6826 69.5848 64.492 70.3401C65.3552 71.0416 66.812 71.3923 68.8624 71.3923H77.9269C79.9232 71.3923 80.9214 72.6602 80.9214 75.1961C80.9214 76.2752 80.6786 77.1925 80.193 77.9479C79.7074 78.6493 78.952 79 77.9269 79H67.3246ZM120.85 79C118.908 79 117.882 77.732 117.775 75.1961C117.775 72.6602 118.8 71.3923 120.85 71.3923H129.024C131.021 71.3923 132.423 70.8257 133.233 69.6927C134.096 68.5596 134.528 67.3456 134.528 66.0507V43.2275C134.528 41.8786 134.096 40.6376 133.233 39.5045C132.423 38.3175 130.994 37.778 128.943 37.8859H113.404V86.5268C113.404 89.0627 111.92 90.3307 108.953 90.3307C105.985 90.3307 104.501 89.0357 104.501 86.4459V35.0532C104.501 33.1648 104.987 31.8968 105.958 31.2493C106.929 30.6019 108.116 30.2781 109.519 30.2781H130.481C131.884 30.2781 133.287 30.5209 134.69 31.0065C136.146 31.4921 137.63 32.1666 139.141 33.0299C140.436 33.9471 141.461 35.242 142.216 36.9147C143.026 38.5333 143.43 40.4488 143.43 42.6609V66.6172C143.43 71.0416 142.001 74.198 139.141 76.0864C136.119 78.0288 133.233 79 130.481 79H120.85ZM188.546 18.2191C188.546 15.6292 190.138 14.3343 193.321 14.3343C196.559 14.3343 198.177 15.6292 198.177 18.2191V75.6008C198.177 78.1907 196.559 79.4856 193.321 79.4856C190.138 79.4856 188.546 78.1907 188.546 75.6008V18.2191ZM163.943 75.6008C163.943 78.1907 162.324 79.4856 159.087 79.4856C155.903 79.4856 154.312 78.1907 154.312 75.6008V18.2191C154.312 15.6292 155.903 14.3343 159.087 14.3343C162.324 14.3343 163.943 15.6292 163.943 18.2191V75.6008ZM182.881 45.5745C182.881 47.463 182.234 49.0547 180.939 50.3496C179.644 51.6445 178.052 52.292 176.164 52.292C174.329 52.292 172.764 51.6445 171.469 50.3496C170.174 49.0547 169.527 47.463 169.527 45.5745C169.527 43.6861 170.174 42.0944 171.469 40.7995C172.764 39.5045 174.329 38.8571 176.164 38.8571C178.052 38.8571 179.644 39.5045 180.939 40.7995C182.234 42.0944 182.881 43.6861 182.881 45.5745ZM248.233 66.1316C248.233 68.2898 247.855 70.2052 247.1 71.8779C246.344 73.5505 245.265 74.8994 243.862 75.9245H243.943C242.594 76.8418 241.165 77.5972 239.654 78.1907C238.143 78.7302 236.686 79 235.283 79H222.253C220.904 79 219.447 78.7302 217.883 78.1907C216.372 77.5972 214.942 76.8418 213.593 75.9245H213.674C212.271 74.8994 211.192 73.5505 210.437 71.8779C209.682 70.2052 209.304 68.2898 209.304 66.1316V33.6773C209.304 31.0875 210.788 29.7925 213.755 29.7925C216.723 29.7925 218.206 31.0875 218.206 33.6773V65.4841C218.206 66.9949 218.584 68.3168 219.34 69.4499C220.041 70.7448 221.498 71.3923 223.71 71.3923H233.827C235.985 71.3923 237.415 70.7448 238.116 69.4499L238.035 69.5308C238.898 68.2359 239.33 66.887 239.33 65.4841V33.6773C239.33 31.0875 240.814 29.7925 243.781 29.7925C246.749 29.7925 248.233 31.0875 248.233 33.6773V66.1316ZM267.207 75.6008C267.207 76.8957 266.749 77.8669 265.831 78.5144C264.914 79.1619 263.916 79.4856 262.837 79.4856C259.869 79.4856 258.385 78.1907 258.385 75.6008V18.1381C258.385 15.5483 259.869 14.2533 262.837 14.2533C265.804 14.2533 267.288 15.5483 267.288 18.1381V30.2781H284.365C287.117 30.2781 289.976 31.3033 292.944 33.3536C295.858 35.4039 297.314 38.6412 297.314 43.0656V67.1837C297.314 71.662 295.992 74.7375 293.349 76.4101C290.705 78.1367 287.683 79 284.284 79H274.734C272.792 79 271.766 77.732 271.659 75.1961C271.659 72.6602 272.684 71.3923 274.734 71.3923H282.827C284.824 71.3923 286.254 71.0416 287.117 70.3401C287.98 69.5848 288.412 68.5056 288.412 67.1028V43.794C288.412 42.3912 287.98 41.0423 287.117 39.7473L287.198 39.8283C286.496 38.5333 285.066 37.8859 282.908 37.8859H267.288L267.207 75.6008Z" fill="#132C3D"/>
<mask id="mask0" style="mask-type:alpha" maskUnits="userSpaceOnUse" x="2" y="14" width="296" height="77">
<path d="M6.3344 22.9132C4.44596 22.9132 3.44778 21.5373 3.33987 18.7856C3.33987 16.0878 4.33804 14.7389 6.3344 14.7389H41.8641C43.6447 14.7389 45.0205 15.0357 45.9917 15.6292C46.9629 16.1688 47.5025 16.9241 47.6104 17.8953C47.6644 18.8126 47.6374 19.7028 47.5295 20.5661C47.4755 21.3755 47.2867 21.996 46.9629 22.4276L15.0752 70.9067H44.3731C46.3694 70.9067 47.3676 72.2286 47.3676 74.8724C47.4755 77.6781 46.4773 79.0809 44.3731 79.0809H8.11493C4.55387 79.0809 2.63844 78.0018 2.36867 75.8436C2.26076 74.9264 2.26076 74.09 2.36867 73.3347C2.47658 72.5253 2.6924 71.9048 3.01613 71.4732C3.98733 69.9624 4.98551 68.3977 6.01067 66.7791C7.08978 65.1604 8.2768 63.3799 9.57173 61.4375C10.8667 59.4951 12.2965 57.3099 13.8612 54.8819C15.4799 52.4539 17.3144 49.7021 19.3647 46.6267C21.415 43.4972 23.7081 39.9901 26.244 36.1053C28.8339 32.2205 31.7475 27.8232 34.9848 22.9132H6.3344Z" fill="#8DC434"/>
<path d="M67.3246 79C65.652 79 64.0603 78.7842 62.5496 78.3525C61.0388 77.8669 59.582 77.1925 58.1792 76.3292V76.4101C55.5353 74.7375 54.2134 71.662 54.2134 67.1837V63.218C54.2134 61.0058 54.5911 59.0904 55.3465 57.4717C56.1558 55.7991 57.2619 54.4772 58.6648 53.506H58.5838C59.9327 52.5888 61.3625 51.9143 62.8733 51.4827C64.384 50.9971 65.8408 50.7543 67.2437 50.7543H85.13V43.2275C85.13 41.8786 84.6983 40.6646 83.835 39.5855C83.0257 38.4524 81.6228 37.8859 79.6265 37.8859H70.1573C68.107 37.8859 66.6772 38.3984 65.8678 39.4236C65.1124 40.3948 64.7348 41.5548 64.7348 42.9037V43.5512C64.7348 46.3569 63.224 47.7597 60.2025 47.7597C57.181 47.7597 55.6702 46.3569 55.6702 43.5512V42.8228C55.6702 40.6106 56.0479 38.7492 56.8033 37.2384C57.6126 35.7276 58.6917 34.4597 60.0406 33.4345H59.9597C61.3625 32.5173 62.8193 31.7619 64.3301 31.1684C65.8948 30.5749 67.3786 30.2781 68.7814 30.2781H81.0833C82.4322 30.2781 83.862 30.5749 85.3728 31.1684C86.9375 31.7619 88.3943 32.5173 89.7432 33.4345H89.6622C91.0651 34.4597 92.1442 35.8086 92.8996 37.4812C93.6549 39.0999 94.0326 40.9883 94.0326 43.1465V75.6008C94.0326 78.1907 92.5488 79.4856 89.5813 79.4856C88.9878 79.4856 88.4212 79.4586 87.8817 79.4047C87.3961 79.3507 86.9375 79.2158 86.5058 79C86.1281 78.7302 85.8044 78.3795 85.5346 77.9479C85.3188 77.4623 85.2109 76.8418 85.2109 76.0864L85.13 58.362H68.7814C67.5944 58.362 66.6772 58.4969 66.0297 58.7667C65.3822 59.0364 64.8696 59.4681 64.492 60.0616C64.0603 60.9788 63.7366 61.7072 63.5208 62.2468C63.3589 62.7324 63.278 63.2989 63.278 63.9464V67.1028C63.278 68.5056 63.6826 69.5848 64.492 70.3401C65.3552 71.0416 66.812 71.3923 68.8624 71.3923H77.9269C79.9232 71.3923 80.9214 72.6602 80.9214 75.1961C80.9214 76.2752 80.6786 77.1925 80.193 77.9479C79.7074 78.6493 78.952 79 77.9269 79H67.3246ZM120.85 79C118.908 79 117.882 77.732 117.775 75.1961C117.775 72.6602 118.8 71.3923 120.85 71.3923H129.024C131.021 71.3923 132.423 70.8257 133.233 69.6927C134.096 68.5596 134.528 67.3456 134.528 66.0507V43.2275C134.528 41.8786 134.096 40.6376 133.233 39.5045C132.423 38.3175 130.994 37.778 128.943 37.8859H113.404V86.5268C113.404 89.0627 111.92 90.3307 108.953 90.3307C105.985 90.3307 104.501 89.0357 104.501 86.4459V35.0532C104.501 33.1648 104.987 31.8968 105.958 31.2493C106.929 30.6019 108.116 30.2781 109.519 30.2781H130.481C131.884 30.2781 133.287 30.5209 134.69 31.0065C136.146 31.4921 137.63 32.1666 139.141 33.0299C140.436 33.9471 141.461 35.242 142.216 36.9147C143.026 38.5333 143.43 40.4488 143.43 42.6609V66.6172C143.43 71.0416 142.001 74.198 139.141 76.0864C136.119 78.0288 133.233 79 130.481 79H120.85ZM188.546 18.2191C188.546 15.6292 190.138 14.3343 193.321 14.3343C196.559 14.3343 198.177 15.6292 198.177 18.2191V75.6008C198.177 78.1907 196.559 79.4856 193.321 79.4856C190.138 79.4856 188.546 78.1907 188.546 75.6008V18.2191ZM163.943 75.6008C163.943 78.1907 162.324 79.4856 159.087 79.4856C155.903 79.4856 154.312 78.1907 154.312 75.6008V18.2191C154.312 15.6292 155.903 14.3343 159.087 14.3343C162.324 14.3343 163.943 15.6292 163.943 18.2191V75.6008ZM182.881 45.5745C182.881 47.463 182.234 49.0547 180.939 50.3496C179.644 51.6445 178.052 52.292 176.164 52.292C174.329 52.292 172.764 51.6445 171.469 50.3496C170.174 49.0547 169.527 47.463 169.527 45.5745C169.527 43.6861 170.174 42.0944 171.469 40.7995C172.764 39.5045 174.329 38.8571 176.164 38.8571C178.052 38.8571 179.644 39.5045 180.939 40.7995C182.234 42.0944 182.881 43.6861 182.881 45.5745ZM248.233 66.1316C248.233 68.2898 247.855 70.2052 247.1 71.8779C246.344 73.5505 245.265 74.8994 243.862 75.9245H243.943C242.594 76.8418 241.165 77.5972 239.654 78.1907C238.143 78.7302 236.686 79 235.283 79H222.253C220.904 79 219.447 78.7302 217.883 78.1907C216.372 77.5972 214.942 76.8418 213.593 75.9245H213.674C212.271 74.8994 211.192 73.5505 210.437 71.8779C209.682 70.2052 209.304 68.2898 209.304 66.1316V33.6773C209.304 31.0875 210.788 29.7925 213.755 29.7925C216.723 29.7925 218.206 31.0875 218.206 33.6773V65.4841C218.206 66.9949 218.584 68.3168 219.34 69.4499C220.041 70.7448 221.498 71.3923 223.71 71.3923H233.827C235.985 71.3923 237.415 70.7448 238.116 69.4499L238.035 69.5308C238.898 68.2359 239.33 66.887 239.33 65.4841V33.6773C239.33 31.0875 240.814 29.7925 243.781 29.7925C246.749 29.7925 248.233 31.0875 248.233 33.6773V66.1316ZM267.207 75.6008C267.207 76.8957 266.749 77.8669 265.831 78.5144C264.914 79.1619 263.916 79.4856 262.837 79.4856C259.869 79.4856 258.385 78.1907 258.385 75.6008V18.1381C258.385 15.5483 259.869 14.2533 262.837 14.2533C265.804 14.2533 267.288 15.5483 267.288 18.1381V30.2781H284.365C287.117 30.2781 289.976 31.3033 292.944 33.3536C295.858 35.4039 297.314 38.6412 297.314 43.0656V67.1837C297.314 71.662 295.992 74.7375 293.349 76.4101C290.705 78.1367 287.683 79 284.284 79H274.734C272.792 79 271.766 77.732 271.659 75.1961C271.659 72.6602 272.684 71.3923 274.734 71.3923H282.827C284.824 71.3923 286.254 71.0416 287.117 70.3401C287.98 69.5848 288.412 68.5056 288.412 67.1028V43.794C288.412 42.3912 287.98 41.0423 287.117 39.7473L287.198 39.8283C286.496 38.5333 285.066 37.8859 282.908 37.8859H267.288L267.207 75.6008Z" fill="#132C3D"/>
</mask>
<g mask="url(#mask0)">
<circle cx="175.624" cy="47.6928" r="10.1167" fill="#8DC434"/>
</g>
</svg>
