<svg width="60" height="60" viewBox="0 0 60 60" fill="none" xmlns="http://www.w3.org/2000/svg">
<path d="M30.0002 0.833334C13.9002 0.833334 0.833496 13.9 0.833496 30C0.833496 46.1 13.9002 59.1667 30.0002 59.1667C46.1002 59.1667 59.1668 46.1 59.1668 30C59.1668 13.9 46.1002 0.833334 30.0002 0.833334ZM30.0002 9.58333C34.8418 9.58333 38.7502 13.4917 38.7502 18.3333C38.7502 23.175 34.8418 27.0833 30.0002 27.0833C25.1585 27.0833 21.2502 23.175 21.2502 18.3333C21.2502 13.4917 25.1585 9.58333 30.0002 9.58333ZM30.0002 51C22.7085 51 16.2627 47.2667 12.5002 41.6083C12.5877 35.8042 24.1668 32.625 30.0002 32.625C35.8043 32.625 47.4127 35.8042 47.5002 41.6083C43.7377 47.2667 37.2918 51 30.0002 51Z" fill="#2F4858"/>
</svg>
